<svg width="296" height="660" viewBox="0 0 296 660" fill="none" xmlns="http://www.w3.org/2000/svg">
<path d="M137 68H159V91H137V68Z" fill="#526F1C"/>
<path d="M159 114H182V136H159V114Z" fill="#3F992B"/>
<path d="M159 136H182V159H159V136Z" fill="#697D22"/>
<path d="M159 318H182V341H159V318Z" fill="#697D22"/>
<path d="M137 364H159V387H137V364Z" fill="#697D22"/>
<path d="M137 387H159V410H137V387Z" fill="#697D22"/>
<path d="M159 296H182V318H159V296Z" fill="#697D22"/>
<path d="M159 159H182V182H159V159Z" fill="#697D22"/>
<path d="M137 250H159V273H137V250Z" fill="#697D22"/>
<path d="M137 227H159V250H137V227Z" fill="#697D22"/>
<path d="M137 205H159V227H137V205Z" fill="#697D22"/>
<path d="M159 273H182V296H159V273Z" fill="#3F992B"/>
<path d="M114 364H137V387H114V364Z" fill="#3F992B"/>
<path d="M114 205H137V227H114V205Z" fill="#3F992B"/>
<path d="M114 387H137V410H114V387Z" fill="#526F1C"/>
<path d="M114 341H137V364H114V341Z" fill="#526F1C"/>
<path d="M137 341H159V364H137V341Z" fill="#526F1C"/>
<path d="M137 318H159V341H137V318Z" fill="#526F1C"/>
<path d="M137 296H159V318H137V296Z" fill="#526F1C"/>
<path d="M137 273H159V296H137V273Z" fill="#526F1C"/>
<path d="M114 227H137V250H114V227Z" fill="#526F1C"/>
<path d="M114 250H137V273H114V250Z" fill="#526F1C"/>
<path d="M137 182H159V205H137V182Z" fill="#526F1C"/>
<path d="M137 159H159V182H137V159Z" fill="#526F1C"/>
<path d="M137 114H159V136H137V114Z" fill="#526F1C"/>
<path d="M137 136H159V159H137V136Z" fill="#526F1C"/>
<path d="M137 91H159V114H137V91Z" fill="#526F1C"/>
<path d="M137 68H159V91H137V68Z" fill="#526F1C"/>
<path d="M182 91H205V114H182V91Z" fill="#9ECF3C"/>
<path d="M205 68H228V91H205V68Z" fill="#9ECF3C"/>
<path d="M182 68H205V91H182V68Z" fill="#76CB3C"/>
<path d="M228 91H250V114H228V91Z" fill="#76CB3C"/>
<path d="M273 0H296V22H273V0Z" fill="#70CA3A"/>
<path d="M250 68H273V91H250V68Z" fill="#76CB3C"/>
<path d="M182 45H205V68H182V45Z" fill="#76CB3C"/>
<path d="M182 68H205V91H182V68Z" fill="#76CB3C"/>
<path d="M205 91H228V114H205V91Z" fill="#76CB3C"/>
<path d="M250 22H273V45H250V22Z" fill="#9ECF3C"/>
<path d="M250 0H273V22H250V0Z" fill="#ADDA51"/>
<path d="M228 22H250V45H228V22Z" fill="#ADDA51"/>
<path d="M205 22H228V45H205V22Z" fill="#ADDA51"/>
<path d="M228 68H250V91H228V68Z" fill="#ADDA51"/>
<path d="M205 45H228V68H205V45Z" fill="#ADDA51"/>
<path d="M250 45H273V68H250V45Z" fill="#ADDA51"/>
<path d="M273 22H296V45H273V22Z" fill="#ADDA51"/>
<path d="M228 45H250V68H228V45Z" fill="#9ECF3C"/>
<path d="M114 341H91V364H114V341Z" fill="#9ECF3C"/>
<path d="M91 318H68V341H91V318Z" fill="#9ECF3C"/>
<path d="M114 318H91V341H114V318Z" fill="#76CB3C"/>
<path d="M68 341H46V364H68V341Z" fill="#76CB3C"/>
<path d="M23 250H0V273H23V250Z" fill="#70CA3A"/>
<path d="M46 318H23V341H46V318Z" fill="#76CB3C"/>
<path d="M114 296H91V318H114V296Z" fill="#76CB3C"/>
<path d="M114 318H91V341H114V318Z" fill="#76CB3C"/>
<path d="M91 341H68V364H91V341Z" fill="#76CB3C"/>
<path d="M46 273H23V296H46V273Z" fill="#9ECF3C"/>
<path d="M46 250H23V273H46V250Z" fill="#ADDA51"/>
<path d="M68 273H46V296H68V273Z" fill="#ADDA51"/>
<path d="M91 273H68V296H91V273Z" fill="#ADDA51"/>
<path d="M68 318H46V341H68V318Z" fill="#ADDA51"/>
<path d="M91 296H68V318H91V296Z" fill="#ADDA51"/>
<path d="M46 296H23V318H46V296Z" fill="#ADDA51"/>
<path d="M23 273H0V296H23V273Z" fill="#ADDA51"/>
<path d="M68 296H46V318H68V296Z" fill="#9ECF3C"/>
<path d="M114 182H91V205H114V182Z" fill="#9ECF3C"/>
<path d="M91 159H68V182H91V159Z" fill="#9ECF3C"/>
<path d="M114 159H91V182H114V159Z" fill="#76CB3C"/>
<path d="M68 182H46V205H68V182Z" fill="#76CB3C"/>
<path d="M23 91H0V114H23V91Z" fill="#70CA3A"/>
<path d="M46 159H23V182H46V159Z" fill="#76CB3C"/>
<path d="M114 136H91V159H114V136Z" fill="#76CB3C"/>
<path d="M114 159H91V182H114V159Z" fill="#76CB3C"/>
<path d="M91 182H68V205H91V182Z" fill="#76CB3C"/>
<path d="M46 114H23V136H46V114Z" fill="#9ECF3C"/>
<path d="M46 91H23V114H46V91Z" fill="#ADDA51"/>
<path d="M68 114H46V136H68V114Z" fill="#ADDA51"/>
<path d="M91 114H68V136H91V114Z" fill="#ADDA51"/>
<path d="M68 159H46V182H68V159Z" fill="#ADDA51"/>
<path d="M91 136H68V159H91V136Z" fill="#ADDA51"/>
<path d="M46 136H23V159H46V136Z" fill="#ADDA51"/>
<path d="M23 114H0V136H23V114Z" fill="#ADDA51"/>
<path d="M68 136H46V159H68V136Z" fill="#9ECF3C"/>
<path d="M182 250H205V273H182V250Z" fill="#9ECF3C"/>
<path d="M205 227H228V250H205V227Z" fill="#9ECF3C"/>
<path d="M182 227H205V250H182V227Z" fill="#76CB3C"/>
<path d="M228 250H250V273H228V250Z" fill="#76CB3C"/>
<path d="M273 159H296V182H273V159Z" fill="#70CA3A"/>
<path d="M250 227H273V250H250V227Z" fill="#76CB3C"/>
<path d="M182 205H205V227H182V205Z" fill="#76CB3C"/>
<path d="M182 227H205V250H182V227Z" fill="#76CB3C"/>
<path d="M205 250H228V273H205V250Z" fill="#76CB3C"/>
<path d="M250 182H273V205H250V182Z" fill="#9ECF3C"/>
<path d="M250 159H273V182H250V159Z" fill="#ADDA51"/>
<path d="M228 182H250V205H228V182Z" fill="#ADDA51"/>
<path d="M205 182H228V205H205V182Z" fill="#ADDA51"/>
<path d="M228 227H250V250H228V227Z" fill="#ADDA51"/>
<path d="M205 205H228V227H205V205Z" fill="#ADDA51"/>
<path d="M250 205H273V227H250V205Z" fill="#ADDA51"/>
<path d="M273 182H296V205H273V182Z" fill="#ADDA51"/>
<path d="M228 205H250V227H228V205Z" fill="#9ECF3C"/>
<path d="M159 114H182V136H159V114Z" fill="#3F992B"/>
<path d="M159 136H182V159H159V136Z" fill="#697D22"/>
<path d="M159 318H182V341H159V318Z" fill="#697D22"/>
<path d="M137 364H159V387H137V364Z" fill="#697D22"/>
<path d="M137 387H159V410H137V387Z" fill="#697D22"/>
<path d="M114 410H137V432H114V410Z" fill="#FF7747"/>
<path d="M91 410H114V432H91V410Z" fill="#FF7747"/>
<path d="M68 410H91V432H68V410Z" fill="#CF4717"/>
<path d="M46 410H68V432H46V410Z" fill="#CF4717"/>
<path d="M46 432H68V455H46V432Z" fill="#BC471E"/>
<path d="M68 432H91V455H68V432Z" fill="#BC471E"/>
<path d="M68 455H91V478H68V455Z" fill="#BC471E"/>
<path d="M46 455H68V478H46V455Z" fill="#A8421E"/>
<path d="M91 501H114V523H91V501Z" fill="#A8421E"/>
<path d="M114 501H137V523H114V501Z" fill="#B35534"/>
<path d="M114 523H137V546H114V523Z" fill="#F46F3A"/>
<path d="M137 523H159V546H137V523Z" fill="#F37D3D"/>
<path d="M205 546H228V569H205V546Z" fill="#F46F3A"/>
<path d="M182 569H205V592H182V569Z" fill="#F46F3A"/>
<path d="M182 592H205V614H182V592Z" fill="#F46F3A"/>
<path d="M182 546H205V569H182V546Z" fill="black"/>
<path d="M159 546H182V569H159V546Z" fill="#F37D3D"/>
<path d="M137 546H159V569H137V546Z" fill="#F37D3D"/>
<path d="M205 569H228V592H205V569Z" fill="#F37D3D"/>
<path d="M250 592H273V614H250V592Z" fill="black"/>
<path d="M228 569H250V592H228V569Z" fill="black"/>
<path d="M159 637H182V660H159V637Z" fill="black"/>
<path d="M159 614H182V637H159V614Z" fill="black"/>
<path d="M91 637H114V660H91V637Z" fill="black"/>
<path d="M91 614H114V637H91V614Z" fill="black"/>
<path d="M23 592H0V614H23V592Z" fill="black"/>
<path d="M46 569H23V592H46V569Z" fill="black"/>
<path d="M159 569H182V592H159V569Z" fill="#F37D3D"/>
<path d="M137 592H159V614H137V592Z" fill="#F37D3D"/>
<path d="M159 592H182V614H159V592Z" fill="#F37D3D"/>
<path d="M137 569H159V592H137V569Z" fill="#ED3916"/>
<path d="M114 569H137V592H114V569Z" fill="#ED3916"/>
<path d="M114 546H137V569H114V546Z" fill="#F37D3D"/>
<path d="M159 523H182V546H159V523Z" fill="#F37D3D"/>
<path d="M182 523H205V546H182V523Z" fill="black"/>
<path d="M205 523H228V546H205V523Z" fill="#F37D3D"/>
<path d="M46 523H68V546H46V523Z" fill="#B35534"/>
<path d="M91 546H114V569H91V546Z" fill="#B35534"/>
<path d="M91 523H114V546H91V523Z" fill="#B35534"/>
<path d="M68 546H91V569H68V546Z" fill="black"/>
<path d="M68 569H91V592H68V569Z" fill="#B35534"/>
<path d="M91 569H114V592H91V569Z" fill="#B35534"/>
<path d="M68 592H91V614H68V592Z" fill="#B35534"/>
<path d="M91 592H114V614H91V592Z" fill="#B35534"/>
<path d="M114 592H137V614H114V592Z" fill="#B35534"/>
<path d="M46 569H68V592H46V569Z" fill="#B35534"/>
<path d="M68 523H91V546H68V523Z" fill="black"/>
<path d="M46 546H68V569H46V546Z" fill="#C6562E"/>
<path d="M205 501H228V523H205V501Z" fill="#B35534"/>
<path d="M182 501H205V523H182V501Z" fill="#B35534"/>
<path d="M159 501H182V523H159V501Z" fill="#B35534"/>
<path d="M137 501H159V523H137V501Z" fill="#B35534"/>
<path d="M68 501H91V523H68V501Z" fill="#A8421E"/>
<path d="M46 501H68V523H46V501Z" fill="#A8421E"/>
<path d="M23 455H46V478H23V455Z" fill="#BC471E"/>
<path d="M68 478H91V501H68V478Z" fill="#BC471E"/>
<path d="M46 478H68V501H46V478Z" fill="#BC471E"/>
<path d="M23 478H46V501H23V478Z" fill="#BC471E"/>
<path d="M23 432H46V455H23V432Z" fill="#CF4717"/>
<path d="M23 410H46V432H23V410Z" fill="#BD3C0E"/>
<path d="M137 410H159V432H137V410Z" fill="#FD8A61"/>
<path d="M228 410H250V432H228V410Z" fill="#FD8A61"/>
<path d="M182 410H205V432H182V410Z" fill="#FD8A61"/>
<path d="M159 410H182V432H159V410Z" fill="#FF7747"/>
<path d="M91 455H114V478H91V455Z" fill="#FF7747"/>
<path d="M159 455H182V478H159V455Z" fill="#FF7747"/>
<path d="M159 478H182V501H159V478Z" fill="#FF7747"/>
<path d="M182 455H205V478H182V455Z" fill="#FF7747"/>
<path d="M91 432H114V455H91V432Z" fill="#ED754B"/>
<path d="M114 432H137V455H114V432Z" fill="#ED754B"/>
<path d="M137 455H159V478H137V455Z" fill="#ED754B"/>
<path d="M228 455H250V478H228V455Z" fill="#ED754B"/>
<path d="M205 455H228V478H205V455Z" fill="#ED754B"/>
<path d="M114 455H137V478H114V455Z" fill="#ED754B"/>
<path d="M228 478H250V501H228V478Z" fill="#ED754B"/>
<path d="M205 478H228V501H205V478Z" fill="#ED754B"/>
<path d="M182 478H205V501H182V478Z" fill="#ED754B"/>
<path d="M137 478H159V501H137V478Z" fill="#ED754B"/>
<path d="M114 478H137V501H114V478Z" fill="#ED754B"/>
<path d="M91 478H114V501H91V478Z" fill="#ED754B"/>
<path d="M205 432H228V455H205V432Z" fill="#ED754B"/>
<path d="M228 432H250V455H228V432Z" fill="#ED754B"/>
<path d="M182 432H205V455H182V432Z" fill="#ED754B"/>
<path d="M159 432H182V455H159V432Z" fill="#ED754B"/>
<path d="M137 432H159V455H137V432Z" fill="#FD8A61"/>
<path d="M205 410H228V432H205V410Z" fill="#FF7747"/>
<path d="M159 296H182V318H159V296Z" fill="#697D22"/>
<path d="M159 159H182V182H159V159Z" fill="#697D22"/>
<path d="M137 250H159V273H137V250Z" fill="#697D22"/>
<path d="M137 227H159V250H137V227Z" fill="#697D22"/>
<path d="M137 205H159V227H137V205Z" fill="#697D22"/>
<path d="M159 273H182V296H159V273Z" fill="#3F992B"/>
<path d="M114 364H137V387H114V364Z" fill="#3F992B"/>
<path d="M114 205H137V227H114V205Z" fill="#3F992B"/>
<path d="M114 387H137V410H114V387Z" fill="#526F1C"/>
<path d="M114 341H137V364H114V341Z" fill="#526F1C"/>
<path d="M137 341H159V364H137V341Z" fill="#526F1C"/>
<path d="M137 318H159V341H137V318Z" fill="#526F1C"/>
<path d="M137 296H159V318H137V296Z" fill="#526F1C"/>
<path d="M137 273H159V296H137V273Z" fill="#526F1C"/>
<path d="M114 227H137V250H114V227Z" fill="#526F1C"/>
<path d="M114 250H137V273H114V250Z" fill="#526F1C"/>
<path d="M137 182H159V205H137V182Z" fill="#526F1C"/>
<path d="M137 159H159V182H137V159Z" fill="#526F1C"/>
<path d="M137 114H159V136H137V114Z" fill="#526F1C"/>
<path d="M137 136H159V159H137V136Z" fill="#526F1C"/>
<path d="M137 91H159V114H137V91Z" fill="#526F1C"/>
<path d="M137 68H159V91H137V68Z" fill="#526F1C"/>
<path d="M159 114H182V136H159V114Z" fill="#3F992B"/>
<path d="M159 136H182V159H159V136Z" fill="#697D22"/>
<path d="M159 318H182V341H159V318Z" fill="#697D22"/>
<path d="M137 364H159V387H137V364Z" fill="#697D22"/>
<path d="M159 296H182V318H159V296Z" fill="#697D22"/>
<path d="M159 159H182V182H159V159Z" fill="#697D22"/>
<path d="M137 250H159V273H137V250Z" fill="#697D22"/>
<path d="M137 227H159V250H137V227Z" fill="#697D22"/>
<path d="M137 205H159V227H137V205Z" fill="#697D22"/>
<path d="M159 273H182V296H159V273Z" fill="#3F992B"/>
<path d="M114 364H137V387H114V364Z" fill="#3F992B"/>
<path d="M114 205H137V227H114V205Z" fill="#3F992B"/>
<path d="M114 341H137V364H114V341Z" fill="#526F1C"/>
<path d="M137 341H159V364H137V341Z" fill="#526F1C"/>
<path d="M137 318H159V341H137V318Z" fill="#526F1C"/>
<path d="M137 296H159V318H137V296Z" fill="#526F1C"/>
<path d="M137 273H159V296H137V273Z" fill="#526F1C"/>
<path d="M114 227H137V250H114V227Z" fill="#526F1C"/>
<path d="M114 250H137V273H114V250Z" fill="#526F1C"/>
<path d="M137 182H159V205H137V182Z" fill="#526F1C"/>
<path d="M137 159H159V182H137V159Z" fill="#526F1C"/>
<path d="M137 114H159V136H137V114Z" fill="#526F1C"/>
<path d="M137 136H159V159H137V136Z" fill="#526F1C"/>
<path d="M137 91H159V114H137V91Z" fill="#526F1C"/>
<path d="M137 68H159V91H137V68Z" fill="#526F1C"/>
<path d="M182 91H205V114H182V91Z" fill="#9ECF3C"/>
<path d="M205 68H228V91H205V68Z" fill="#9ECF3C"/>
<path d="M182 68H205V91H182V68Z" fill="#76CB3C"/>
<path d="M228 91H250V114H228V91Z" fill="#76CB3C"/>
<path d="M273 0H296V22H273V0Z" fill="#70CA3A"/>
<path d="M250 68H273V91H250V68Z" fill="#76CB3C"/>
<path d="M182 45H205V68H182V45Z" fill="#76CB3C"/>
<path d="M182 68H205V91H182V68Z" fill="#76CB3C"/>
<path d="M205 91H228V114H205V91Z" fill="#76CB3C"/>
<path d="M250 22H273V45H250V22Z" fill="#9ECF3C"/>
<path d="M250 0H273V22H250V0Z" fill="#ADDA51"/>
<path d="M228 22H250V45H228V22Z" fill="#ADDA51"/>
<path d="M205 22H228V45H205V22Z" fill="#ADDA51"/>
<path d="M228 68H250V91H228V68Z" fill="#ADDA51"/>
<path d="M205 45H228V68H205V45Z" fill="#ADDA51"/>
<path d="M250 45H273V68H250V45Z" fill="#ADDA51"/>
<path d="M273 22H296V45H273V22Z" fill="#ADDA51"/>
<path d="M228 45H250V68H228V45Z" fill="#9ECF3C"/>
<path d="M114 341H91V364H114V341Z" fill="#9ECF3C"/>
<path d="M91 318H68V341H91V318Z" fill="#9ECF3C"/>
<path d="M114 318H91V341H114V318Z" fill="#76CB3C"/>
<path d="M68 341H46V364H68V341Z" fill="#76CB3C"/>
<path d="M23 250H0V273H23V250Z" fill="#70CA3A"/>
<path d="M46 318H23V341H46V318Z" fill="#76CB3C"/>
<path d="M114 296H91V318H114V296Z" fill="#76CB3C"/>
<path d="M114 318H91V341H114V318Z" fill="#76CB3C"/>
<path d="M91 341H68V364H91V341Z" fill="#76CB3C"/>
<path d="M46 273H23V296H46V273Z" fill="#9ECF3C"/>
<path d="M46 250H23V273H46V250Z" fill="#ADDA51"/>
<path d="M68 273H46V296H68V273Z" fill="#ADDA51"/>
<path d="M91 273H68V296H91V273Z" fill="#ADDA51"/>
<path d="M68 318H46V341H68V318Z" fill="#ADDA51"/>
<path d="M91 296H68V318H91V296Z" fill="#ADDA51"/>
<path d="M46 296H23V318H46V296Z" fill="#ADDA51"/>
<path d="M23 273H0V296H23V273Z" fill="#ADDA51"/>
<path d="M68 296H46V318H68V296Z" fill="#9ECF3C"/>
<path d="M114 182H91V205H114V182Z" fill="#9ECF3C"/>
<path d="M91 159H68V182H91V159Z" fill="#9ECF3C"/>
<path d="M114 159H91V182H114V159Z" fill="#76CB3C"/>
<path d="M68 182H46V205H68V182Z" fill="#76CB3C"/>
<path d="M23 91H0V114H23V91Z" fill="#70CA3A"/>
<path d="M46 159H23V182H46V159Z" fill="#76CB3C"/>
<path d="M114 136H91V159H114V136Z" fill="#76CB3C"/>
<path d="M114 159H91V182H114V159Z" fill="#76CB3C"/>
<path d="M91 182H68V205H91V182Z" fill="#76CB3C"/>
<path d="M46 114H23V136H46V114Z" fill="#9ECF3C"/>
<path d="M46 91H23V114H46V91Z" fill="#ADDA51"/>
<path d="M68 114H46V136H68V114Z" fill="#ADDA51"/>
<path d="M91 114H68V136H91V114Z" fill="#ADDA51"/>
<path d="M68 159H46V182H68V159Z" fill="#ADDA51"/>
<path d="M91 136H68V159H91V136Z" fill="#ADDA51"/>
<path d="M46 136H23V159H46V136Z" fill="#ADDA51"/>
<path d="M23 114H0V136H23V114Z" fill="#ADDA51"/>
<path d="M68 136H46V159H68V136Z" fill="#9ECF3C"/>
<path d="M182 250H205V273H182V250Z" fill="#9ECF3C"/>
<path d="M205 227H228V250H205V227Z" fill="#9ECF3C"/>
<path d="M182 227H205V250H182V227Z" fill="#76CB3C"/>
<path d="M228 250H250V273H228V250Z" fill="#76CB3C"/>
<path d="M273 159H296V182H273V159Z" fill="#70CA3A"/>
<path d="M250 227H273V250H250V227Z" fill="#76CB3C"/>
<path d="M182 205H205V227H182V205Z" fill="#76CB3C"/>
<path d="M182 227H205V250H182V227Z" fill="#76CB3C"/>
<path d="M205 250H228V273H205V250Z" fill="#76CB3C"/>
<path d="M250 182H273V205H250V182Z" fill="#9ECF3C"/>
<path d="M250 159H273V182H250V159Z" fill="#ADDA51"/>
<path d="M228 182H250V205H228V182Z" fill="#ADDA51"/>
<path d="M205 182H228V205H205V182Z" fill="#ADDA51"/>
<path d="M228 227H250V250H228V227Z" fill="#ADDA51"/>
<path d="M205 205H228V227H205V205Z" fill="#ADDA51"/>
<path d="M250 205H273V227H250V205Z" fill="#ADDA51"/>
<path d="M273 182H296V205H273V182Z" fill="#ADDA51"/>
<path d="M228 205H250V227H228V205Z" fill="#9ECF3C"/>
<path d="M159 114H182V136H159V114Z" fill="#3F992B"/>
<path d="M159 136H182V159H159V136Z" fill="#697D22"/>
<path d="M159 318H182V341H159V318Z" fill="#697D22"/>
<path d="M137 364H159V387H137V364Z" fill="#697D22"/>
<path d="M159 296H182V318H159V296Z" fill="#697D22"/>
<path d="M159 159H182V182H159V159Z" fill="#697D22"/>
<path d="M137 250H159V273H137V250Z" fill="#697D22"/>
<path d="M137 227H159V250H137V227Z" fill="#697D22"/>
<path d="M137 205H159V227H137V205Z" fill="#697D22"/>
<path d="M159 273H182V296H159V273Z" fill="#3F992B"/>
<path d="M114 364H137V387H114V364Z" fill="#3F992B"/>
<path d="M114 205H137V227H114V205Z" fill="#3F992B"/>
<path d="M114 341H137V364H114V341Z" fill="#526F1C"/>
<path d="M137 341H159V364H137V341Z" fill="#526F1C"/>
<path d="M137 318H159V341H137V318Z" fill="#526F1C"/>
<path d="M137 296H159V318H137V296Z" fill="#526F1C"/>
<path d="M137 273H159V296H137V273Z" fill="#526F1C"/>
<path d="M114 227H137V250H114V227Z" fill="#526F1C"/>
<path d="M114 250H137V273H114V250Z" fill="#526F1C"/>
<path d="M137 182H159V205H137V182Z" fill="#526F1C"/>
<path d="M137 159H159V182H137V159Z" fill="#526F1C"/>
<path d="M137 114H159V136H137V114Z" fill="#526F1C"/>
<path d="M137 136H159V159H137V136Z" fill="#526F1C"/>
<path d="M137 91H159V114H137V91Z" fill="#526F1C"/>
<path d="M137 68H159V91H137V68Z" fill="#526F1C"/>
<path d="M159 114H182V136H159V114Z" fill="#3F992B"/>
<path d="M159 136H182V159H159V136Z" fill="#697D22"/>
<path d="M159 318H182V341H159V318Z" fill="#697D22"/>
<path d="M137 364H159V387H137V364Z" fill="#697D22"/>
<path d="M137 387H159V410H137V387Z" fill="#697D22"/>
<path d="M159 296H182V318H159V296Z" fill="#697D22"/>
<path d="M159 159H182V182H159V159Z" fill="#697D22"/>
<path d="M137 250H159V273H137V250Z" fill="#697D22"/>
<path d="M137 227H159V250H137V227Z" fill="#697D22"/>
<path d="M137 205H159V227H137V205Z" fill="#697D22"/>
<path d="M159 273H182V296H159V273Z" fill="#3F992B"/>
<path d="M114 364H137V387H114V364Z" fill="#3F992B"/>
<path d="M114 205H137V227H114V205Z" fill="#3F992B"/>
<path d="M114 387H137V410H114V387Z" fill="#526F1C"/>
<path d="M114 341H137V364H114V341Z" fill="#526F1C"/>
<path d="M137 341H159V364H137V341Z" fill="#526F1C"/>
<path d="M137 318H159V341H137V318Z" fill="#526F1C"/>
<path d="M137 296H159V318H137V296Z" fill="#526F1C"/>
<path d="M137 273H159V296H137V273Z" fill="#526F1C"/>
<path d="M114 227H137V250H114V227Z" fill="#526F1C"/>
<path d="M114 250H137V273H114V250Z" fill="#526F1C"/>
<path d="M137 182H159V205H137V182Z" fill="#526F1C"/>
<path d="M137 159H159V182H137V159Z" fill="#526F1C"/>
<path d="M137 114H159V136H137V114Z" fill="#526F1C"/>
<path d="M137 136H159V159H137V136Z" fill="#526F1C"/>
<path d="M137 91H159V114H137V91Z" fill="#526F1C"/>
<path d="M137 68H159V91H137V68Z" fill="#526F1C"/>
<path d="M182 91H205V114H182V91Z" fill="#9ECF3C"/>
<path d="M205 68H228V91H205V68Z" fill="#9ECF3C"/>
<path d="M182 68H205V91H182V68Z" fill="#76CB3C"/>
<path d="M228 91H250V114H228V91Z" fill="#76CB3C"/>
<path d="M273 0H296V22H273V0Z" fill="#70CA3A"/>
<path d="M250 68H273V91H250V68Z" fill="#76CB3C"/>
<path d="M182 45H205V68H182V45Z" fill="#76CB3C"/>
<path d="M182 68H205V91H182V68Z" fill="#76CB3C"/>
<path d="M205 91H228V114H205V91Z" fill="#76CB3C"/>
<path d="M250 22H273V45H250V22Z" fill="#9ECF3C"/>
<path d="M250 0H273V22H250V0Z" fill="#ADDA51"/>
<path d="M228 22H250V45H228V22Z" fill="#ADDA51"/>
<path d="M205 22H228V45H205V22Z" fill="#ADDA51"/>
<path d="M228 68H250V91H228V68Z" fill="#ADDA51"/>
<path d="M205 45H228V68H205V45Z" fill="#ADDA51"/>
<path d="M250 45H273V68H250V45Z" fill="#ADDA51"/>
<path d="M273 22H296V45H273V22Z" fill="#ADDA51"/>
<path d="M228 45H250V68H228V45Z" fill="#9ECF3C"/>
<path d="M114 341H91V364H114V341Z" fill="#9ECF3C"/>
<path d="M91 318H68V341H91V318Z" fill="#9ECF3C"/>
<path d="M114 318H91V341H114V318Z" fill="#76CB3C"/>
<path d="M68 341H46V364H68V341Z" fill="#76CB3C"/>
<path d="M23 250H0V273H23V250Z" fill="#70CA3A"/>
<path d="M46 318H23V341H46V318Z" fill="#76CB3C"/>
<path d="M114 296H91V318H114V296Z" fill="#76CB3C"/>
<path d="M114 318H91V341H114V318Z" fill="#76CB3C"/>
<path d="M91 341H68V364H91V341Z" fill="#76CB3C"/>
<path d="M46 273H23V296H46V273Z" fill="#9ECF3C"/>
<path d="M46 250H23V273H46V250Z" fill="#ADDA51"/>
<path d="M68 273H46V296H68V273Z" fill="#ADDA51"/>
<path d="M91 273H68V296H91V273Z" fill="#ADDA51"/>
<path d="M68 318H46V341H68V318Z" fill="#ADDA51"/>
<path d="M91 296H68V318H91V296Z" fill="#ADDA51"/>
<path d="M46 296H23V318H46V296Z" fill="#ADDA51"/>
<path d="M23 273H0V296H23V273Z" fill="#ADDA51"/>
<path d="M68 296H46V318H68V296Z" fill="#9ECF3C"/>
<path d="M114 182H91V205H114V182Z" fill="#9ECF3C"/>
<path d="M91 159H68V182H91V159Z" fill="#9ECF3C"/>
<path d="M114 159H91V182H114V159Z" fill="#76CB3C"/>
<path d="M68 182H46V205H68V182Z" fill="#76CB3C"/>
<path d="M23 91H0V114H23V91Z" fill="#70CA3A"/>
<path d="M46 159H23V182H46V159Z" fill="#76CB3C"/>
<path d="M114 136H91V159H114V136Z" fill="#76CB3C"/>
<path d="M114 159H91V182H114V159Z" fill="#76CB3C"/>
<path d="M91 182H68V205H91V182Z" fill="#76CB3C"/>
<path d="M46 114H23V136H46V114Z" fill="#9ECF3C"/>
<path d="M46 91H23V114H46V91Z" fill="#ADDA51"/>
<path d="M68 114H46V136H68V114Z" fill="#ADDA51"/>
<path d="M91 114H68V136H91V114Z" fill="#ADDA51"/>
<path d="M68 159H46V182H68V159Z" fill="#ADDA51"/>
<path d="M91 136H68V159H91V136Z" fill="#ADDA51"/>
<path d="M46 136H23V159H46V136Z" fill="#ADDA51"/>
<path d="M23 114H0V136H23V114Z" fill="#ADDA51"/>
<path d="M68 136H46V159H68V136Z" fill="#9ECF3C"/>
<path d="M182 250H205V273H182V250Z" fill="#9ECF3C"/>
<path d="M205 227H228V250H205V227Z" fill="#9ECF3C"/>
<path d="M182 227H205V250H182V227Z" fill="#76CB3C"/>
<path d="M228 250H250V273H228V250Z" fill="#76CB3C"/>
<path d="M273 159H296V182H273V159Z" fill="#70CA3A"/>
<path d="M250 227H273V250H250V227Z" fill="#76CB3C"/>
<path d="M182 205H205V227H182V205Z" fill="#76CB3C"/>
<path d="M182 227H205V250H182V227Z" fill="#76CB3C"/>
<path d="M205 250H228V273H205V250Z" fill="#76CB3C"/>
<path d="M250 182H273V205H250V182Z" fill="#9ECF3C"/>
<path d="M250 159H273V182H250V159Z" fill="#ADDA51"/>
<path d="M228 182H250V205H228V182Z" fill="#ADDA51"/>
<path d="M205 182H228V205H205V182Z" fill="#ADDA51"/>
<path d="M228 227H250V250H228V227Z" fill="#ADDA51"/>
<path d="M205 205H228V227H205V205Z" fill="#ADDA51"/>
<path d="M250 205H273V227H250V205Z" fill="#ADDA51"/>
<path d="M273 182H296V205H273V182Z" fill="#ADDA51"/>
<path d="M228 205H250V227H228V205Z" fill="#9ECF3C"/>
<path d="M159 114H182V136H159V114Z" fill="#3F992B"/>
<path d="M159 136H182V159H159V136Z" fill="#697D22"/>
<path d="M159 318H182V341H159V318Z" fill="#697D22"/>
<path d="M137 364H159V387H137V364Z" fill="#697D22"/>
<path d="M137 387H159V410H137V387Z" fill="#697D22"/>
<path d="M114 410H137V432H114V410Z" fill="#FF7747"/>
<path d="M91 410H114V432H91V410Z" fill="#FF7747"/>
<path d="M68 410H91V432H68V410Z" fill="#CF4717"/>
<path d="M46 410H68V432H46V410Z" fill="#CF4717"/>
<path d="M46 432H68V455H46V432Z" fill="#BC471E"/>
<path d="M68 432H91V455H68V432Z" fill="#BC471E"/>
<path d="M68 455H91V478H68V455Z" fill="#BC471E"/>
<path d="M46 455H68V478H46V455Z" fill="#A8421E"/>
<path d="M91 501H114V523H91V501Z" fill="#A8421E"/>
<path d="M114 501H137V523H114V501Z" fill="#B35534"/>
<path d="M114 523H137V546H114V523Z" fill="#F46F3A"/>
<path d="M137 523H159V546H137V523Z" fill="#F37D3D"/>
<path d="M205 546H228V569H205V546Z" fill="#F46F3A"/>
<path d="M182 569H205V592H182V569Z" fill="#F46F3A"/>
<path d="M182 592H205V614H182V592Z" fill="#F46F3A"/>
<path d="M182 546H205V569H182V546Z" fill="black"/>
<path d="M159 546H182V569H159V546Z" fill="#F37D3D"/>
<path d="M137 546H159V569H137V546Z" fill="#F37D3D"/>
<path d="M205 569H228V592H205V569Z" fill="#F37D3D"/>
<path d="M250 592H273V614H250V592Z" fill="black"/>
<path d="M228 569H250V592H228V569Z" fill="black"/>
<path d="M23 592H0V614H23V592Z" fill="black"/>
<path d="M46 569H23V592H46V569Z" fill="black"/>
<path d="M159 569H182V592H159V569Z" fill="#F37D3D"/>
<path d="M137 592H159V614H137V592Z" fill="#F37D3D"/>
<path d="M159 592H182V614H159V592Z" fill="#F37D3D"/>
<path d="M137 569H159V592H137V569Z" fill="#ED3916"/>
<path d="M114 569H137V592H114V569Z" fill="#ED3916"/>
<path d="M114 546H137V569H114V546Z" fill="#F37D3D"/>
<path d="M159 523H182V546H159V523Z" fill="#F37D3D"/>
<path d="M182 523H205V546H182V523Z" fill="black"/>
<path d="M205 523H228V546H205V523Z" fill="#F37D3D"/>
<path d="M46 523H68V546H46V523Z" fill="#B35534"/>
<path d="M91 546H114V569H91V546Z" fill="#B35534"/>
<path d="M91 523H114V546H91V523Z" fill="#B35534"/>
<path d="M68 546H91V569H68V546Z" fill="black"/>
<path d="M68 569H91V592H68V569Z" fill="#B35534"/>
<path d="M91 569H114V592H91V569Z" fill="#B35534"/>
<path d="M68 592H91V614H68V592Z" fill="#B35534"/>
<path d="M91 592H114V614H91V592Z" fill="#B35534"/>
<path d="M114 592H137V614H114V592Z" fill="#B35534"/>
<path d="M46 569H68V592H46V569Z" fill="#B35534"/>
<path d="M68 523H91V546H68V523Z" fill="black"/>
<path d="M46 546H68V569H46V546Z" fill="#C6562E"/>
<path d="M205 501H228V523H205V501Z" fill="#B35534"/>
<path d="M182 501H205V523H182V501Z" fill="#B35534"/>
<path d="M159 501H182V523H159V501Z" fill="#B35534"/>
<path d="M137 501H159V523H137V501Z" fill="#B35534"/>
<path d="M68 501H91V523H68V501Z" fill="#A8421E"/>
<path d="M46 501H68V523H46V501Z" fill="#A8421E"/>
<path d="M23 455H46V478H23V455Z" fill="#BC471E"/>
<path d="M68 478H91V501H68V478Z" fill="#BC471E"/>
<path d="M46 478H68V501H46V478Z" fill="#BC471E"/>
<path d="M23 478H46V501H23V478Z" fill="#BC471E"/>
<path d="M23 432H46V455H23V432Z" fill="#CF4717"/>
<path d="M23 410H46V432H23V410Z" fill="#BD3C0E"/>
<path d="M137 410H159V432H137V410Z" fill="#FD8A61"/>
<path d="M228 410H250V432H228V410Z" fill="#FD8A61"/>
<path d="M182 410H205V432H182V410Z" fill="#FD8A61"/>
<path d="M159 410H182V432H159V410Z" fill="#FF7747"/>
<path d="M91 455H114V478H91V455Z" fill="#FF7747"/>
<path d="M159 455H182V478H159V455Z" fill="#FF7747"/>
<path d="M159 478H182V501H159V478Z" fill="#FF7747"/>
<path d="M182 455H205V478H182V455Z" fill="#FF7747"/>
<path d="M91 432H114V455H91V432Z" fill="#ED754B"/>
<path d="M114 432H137V455H114V432Z" fill="#ED754B"/>
<path d="M137 455H159V478H137V455Z" fill="#ED754B"/>
<path d="M228 455H250V478H228V455Z" fill="#ED754B"/>
<path d="M205 455H228V478H205V455Z" fill="#ED754B"/>
<path d="M114 455H137V478H114V455Z" fill="#ED754B"/>
<path d="M228 478H250V501H228V478Z" fill="#ED754B"/>
<path d="M205 478H228V501H205V478Z" fill="#ED754B"/>
<path d="M182 478H205V501H182V478Z" fill="#ED754B"/>
<path d="M137 478H159V501H137V478Z" fill="#ED754B"/>
<path d="M114 478H137V501H114V478Z" fill="#ED754B"/>
<path d="M91 478H114V501H91V478Z" fill="#ED754B"/>
<path d="M205 432H228V455H205V432Z" fill="#ED754B"/>
<path d="M228 432H250V455H228V432Z" fill="#ED754B"/>
<path d="M182 432H205V455H182V432Z" fill="#ED754B"/>
<path d="M159 432H182V455H159V432Z" fill="#ED754B"/>
<path d="M137 432H159V455H137V432Z" fill="#FD8A61"/>
<path d="M205 410H228V432H205V410Z" fill="#FF7747"/>
<path d="M159 296H182V318H159V296Z" fill="#697D22"/>
<path d="M159 159H182V182H159V159Z" fill="#697D22"/>
<path d="M137 250H159V273H137V250Z" fill="#697D22"/>
<path d="M137 227H159V250H137V227Z" fill="#697D22"/>
<path d="M137 205H159V227H137V205Z" fill="#697D22"/>
<path d="M159 273H182V296H159V273Z" fill="#3F992B"/>
<path d="M114 364H137V387H114V364Z" fill="#3F992B"/>
<path d="M114 205H137V227H114V205Z" fill="#3F992B"/>
<path d="M114 387H137V410H114V387Z" fill="#526F1C"/>
<path d="M114 341H137V364H114V341Z" fill="#526F1C"/>
<path d="M137 341H159V364H137V341Z" fill="#526F1C"/>
<path d="M137 318H159V341H137V318Z" fill="#526F1C"/>
<path d="M137 296H159V318H137V296Z" fill="#526F1C"/>
<path d="M137 273H159V296H137V273Z" fill="#526F1C"/>
<path d="M114 227H137V250H114V227Z" fill="#526F1C"/>
<path d="M114 250H137V273H114V250Z" fill="#526F1C"/>
<path d="M137 182H159V205H137V182Z" fill="#526F1C"/>
<path d="M137 159H159V182H137V159Z" fill="#526F1C"/>
<path d="M137 114H159V136H137V114Z" fill="#526F1C"/>
<path d="M137 136H159V159H137V136Z" fill="#526F1C"/>
<path d="M137 91H159V114H137V91Z" fill="#526F1C"/>
<path d="M137 68H159V91H137V68Z" fill="#526F1C"/>
<path d="M159 114H182V136H159V114Z" fill="#3F992B"/>
<path d="M159 136H182V159H159V136Z" fill="#697D22"/>
<path d="M159 318H182V341H159V318Z" fill="#697D22"/>
<path d="M137 364H159V387H137V364Z" fill="#697D22"/>
<path d="M159 296H182V318H159V296Z" fill="#697D22"/>
<path d="M159 159H182V182H159V159Z" fill="#697D22"/>
<path d="M137 250H159V273H137V250Z" fill="#697D22"/>
<path d="M137 227H159V250H137V227Z" fill="#697D22"/>
<path d="M137 205H159V227H137V205Z" fill="#697D22"/>
<path d="M159 273H182V296H159V273Z" fill="#3F992B"/>
<path d="M114 364H137V387H114V364Z" fill="#3F992B"/>
<path d="M114 205H137V227H114V205Z" fill="#3F992B"/>
<path d="M114 341H137V364H114V341Z" fill="#526F1C"/>
<path d="M137 341H159V364H137V341Z" fill="#526F1C"/>
<path d="M137 318H159V341H137V318Z" fill="#526F1C"/>
<path d="M137 296H159V318H137V296Z" fill="#526F1C"/>
<path d="M137 273H159V296H137V273Z" fill="#526F1C"/>
<path d="M114 227H137V250H114V227Z" fill="#526F1C"/>
<path d="M114 250H137V273H114V250Z" fill="#526F1C"/>
<path d="M137 182H159V205H137V182Z" fill="#526F1C"/>
<path d="M137 159H159V182H137V159Z" fill="#526F1C"/>
<path d="M137 114H159V136H137V114Z" fill="#526F1C"/>
<path d="M137 136H159V159H137V136Z" fill="#526F1C"/>
<path d="M137 91H159V114H137V91Z" fill="#526F1C"/>
<path d="M137 68H159V91H137V68Z" fill="#526F1C"/>
<path d="M182 91H205V114H182V91Z" fill="#9ECF3C"/>
<path d="M205 68H228V91H205V68Z" fill="#9ECF3C"/>
<path d="M182 68H205V91H182V68Z" fill="#76CB3C"/>
<path d="M228 91H250V114H228V91Z" fill="#76CB3C"/>
<path d="M273 0H296V22H273V0Z" fill="#70CA3A"/>
<path d="M250 68H273V91H250V68Z" fill="#76CB3C"/>
<path d="M182 45H205V68H182V45Z" fill="#76CB3C"/>
<path d="M182 68H205V91H182V68Z" fill="#76CB3C"/>
<path d="M205 91H228V114H205V91Z" fill="#76CB3C"/>
<path d="M250 22H273V45H250V22Z" fill="#9ECF3C"/>
<path d="M250 0H273V22H250V0Z" fill="#ADDA51"/>
<path d="M228 22H250V45H228V22Z" fill="#ADDA51"/>
<path d="M205 22H228V45H205V22Z" fill="#ADDA51"/>
<path d="M228 68H250V91H228V68Z" fill="#ADDA51"/>
<path d="M205 45H228V68H205V45Z" fill="#ADDA51"/>
<path d="M250 45H273V68H250V45Z" fill="#ADDA51"/>
<path d="M273 22H296V45H273V22Z" fill="#ADDA51"/>
<path d="M228 45H250V68H228V45Z" fill="#9ECF3C"/>
<path d="M114 341H91V364H114V341Z" fill="#9ECF3C"/>
<path d="M91 318H68V341H91V318Z" fill="#9ECF3C"/>
<path d="M114 318H91V341H114V318Z" fill="#76CB3C"/>
<path d="M68 341H46V364H68V341Z" fill="#76CB3C"/>
<path d="M23 250H0V273H23V250Z" fill="#70CA3A"/>
<path d="M46 318H23V341H46V318Z" fill="#76CB3C"/>
<path d="M114 296H91V318H114V296Z" fill="#76CB3C"/>
<path d="M114 318H91V341H114V318Z" fill="#76CB3C"/>
<path d="M91 341H68V364H91V341Z" fill="#76CB3C"/>
<path d="M46 273H23V296H46V273Z" fill="#9ECF3C"/>
<path d="M46 250H23V273H46V250Z" fill="#ADDA51"/>
<path d="M68 273H46V296H68V273Z" fill="#ADDA51"/>
<path d="M91 273H68V296H91V273Z" fill="#ADDA51"/>
<path d="M68 318H46V341H68V318Z" fill="#ADDA51"/>
<path d="M91 296H68V318H91V296Z" fill="#ADDA51"/>
<path d="M46 296H23V318H46V296Z" fill="#ADDA51"/>
<path d="M23 273H0V296H23V273Z" fill="#ADDA51"/>
<path d="M68 296H46V318H68V296Z" fill="#9ECF3C"/>
<path d="M114 182H91V205H114V182Z" fill="#9ECF3C"/>
<path d="M91 159H68V182H91V159Z" fill="#9ECF3C"/>
<path d="M114 159H91V182H114V159Z" fill="#76CB3C"/>
<path d="M68 182H46V205H68V182Z" fill="#76CB3C"/>
<path d="M23 91H0V114H23V91Z" fill="#70CA3A"/>
<path d="M46 159H23V182H46V159Z" fill="#76CB3C"/>
<path d="M114 136H91V159H114V136Z" fill="#76CB3C"/>
<path d="M114 159H91V182H114V159Z" fill="#76CB3C"/>
<path d="M91 182H68V205H91V182Z" fill="#76CB3C"/>
<path d="M46 114H23V136H46V114Z" fill="#9ECF3C"/>
<path d="M46 91H23V114H46V91Z" fill="#ADDA51"/>
<path d="M68 114H46V136H68V114Z" fill="#ADDA51"/>
<path d="M91 114H68V136H91V114Z" fill="#ADDA51"/>
<path d="M68 159H46V182H68V159Z" fill="#ADDA51"/>
<path d="M91 136H68V159H91V136Z" fill="#ADDA51"/>
<path d="M46 136H23V159H46V136Z" fill="#ADDA51"/>
<path d="M23 114H0V136H23V114Z" fill="#ADDA51"/>
<path d="M68 136H46V159H68V136Z" fill="#9ECF3C"/>
<path d="M182 250H205V273H182V250Z" fill="#9ECF3C"/>
<path d="M205 227H228V250H205V227Z" fill="#9ECF3C"/>
<path d="M182 227H205V250H182V227Z" fill="#76CB3C"/>
<path d="M228 250H250V273H228V250Z" fill="#76CB3C"/>
<path d="M273 159H296V182H273V159Z" fill="#70CA3A"/>
<path d="M250 227H273V250H250V227Z" fill="#76CB3C"/>
<path d="M182 205H205V227H182V205Z" fill="#76CB3C"/>
<path d="M182 227H205V250H182V227Z" fill="#76CB3C"/>
<path d="M205 250H228V273H205V250Z" fill="#76CB3C"/>
<path d="M250 182H273V205H250V182Z" fill="#9ECF3C"/>
<path d="M250 159H273V182H250V159Z" fill="#ADDA51"/>
<path d="M228 182H250V205H228V182Z" fill="#ADDA51"/>
<path d="M205 182H228V205H205V182Z" fill="#ADDA51"/>
<path d="M228 227H250V250H228V227Z" fill="#ADDA51"/>
<path d="M205 205H228V227H205V205Z" fill="#ADDA51"/>
<path d="M250 205H273V227H250V205Z" fill="#ADDA51"/>
<path d="M273 182H296V205H273V182Z" fill="#ADDA51"/>
<path d="M228 205H250V227H228V205Z" fill="#9ECF3C"/>
<path d="M159 114H182V136H159V114Z" fill="#3F992B"/>
<path d="M159 136H182V159H159V136Z" fill="#697D22"/>
<path d="M159 318H182V341H159V318Z" fill="#697D22"/>
<path d="M137 364H159V387H137V364Z" fill="#697D22"/>
<path d="M159 296H182V318H159V296Z" fill="#697D22"/>
<path d="M159 159H182V182H159V159Z" fill="#697D22"/>
<path d="M137 250H159V273H137V250Z" fill="#697D22"/>
<path d="M137 227H159V250H137V227Z" fill="#697D22"/>
<path d="M137 205H159V227H137V205Z" fill="#697D22"/>
<path d="M159 273H182V296H159V273Z" fill="#3F992B"/>
<path d="M114 364H137V387H114V364Z" fill="#3F992B"/>
<path d="M114 205H137V227H114V205Z" fill="#3F992B"/>
<path d="M114 341H137V364H114V341Z" fill="#526F1C"/>
<path d="M137 341H159V364H137V341Z" fill="#526F1C"/>
<path d="M137 318H159V341H137V318Z" fill="#526F1C"/>
<path d="M137 296H159V318H137V296Z" fill="#526F1C"/>
<path d="M137 273H159V296H137V273Z" fill="#526F1C"/>
<path d="M114 227H137V250H114V227Z" fill="#526F1C"/>
<path d="M114 250H137V273H114V250Z" fill="#526F1C"/>
<path d="M137 182H159V205H137V182Z" fill="#526F1C"/>
<path d="M137 159H159V182H137V159Z" fill="#526F1C"/>
<path d="M137 114H159V136H137V114Z" fill="#526F1C"/>
<path d="M137 136H159V159H137V136Z" fill="#526F1C"/>
<path d="M137 91H159V114H137V91Z" fill="#526F1C"/>
</svg>
